<?xml version="1.0" encoding="UTF-8"?>
<svg xmlns="http://www.w3.org/2000/svg" xmlns:xlink="http://www.w3.org/1999/xlink" width="13px" height="13px" viewBox="0 0 13 13" version="1.1">
<g id="surface1">
<path style=" stroke:none;fill-rule:nonzero;fill:rgb(64.313725%,12.941176%,13.333333%);fill-opacity:1;" d="M 12.378906 9.488281 C 11.695312 9.84375 8.164062 11.296875 7.410156 11.6875 C 6.660156 12.082031 6.242188 12.078125 5.644531 11.792969 C 5.050781 11.507812 1.292969 9.988281 0.613281 9.664062 C 0.277344 9.503906 0.0976562 9.367188 0.0976562 9.238281 L 0.0976562 7.945312 C 0.0976562 7.945312 4.992188 6.878906 5.785156 6.597656 C 6.574219 6.3125 6.847656 6.304688 7.519531 6.550781 C 8.195312 6.796875 12.214844 7.519531 12.878906 7.765625 C 12.878906 7.765625 12.878906 8.917969 12.878906 9.039062 C 12.878906 9.167969 12.726562 9.304688 12.378906 9.488281 Z M 12.378906 9.488281 "/>
<path style=" stroke:none;fill-rule:nonzero;fill:rgb(84.705882%,18.431373%,15.294118%);fill-opacity:1;" d="M 12.378906 8.195312 C 11.695312 8.550781 8.164062 10.003906 7.410156 10.394531 C 6.660156 10.789062 6.242188 10.785156 5.644531 10.5 C 5.050781 10.214844 1.292969 8.695312 0.613281 8.375 C -0.0625 8.050781 -0.078125 7.828125 0.589844 7.566406 C 1.253906 7.304688 4.992188 5.839844 5.785156 5.554688 C 6.574219 5.269531 6.847656 5.261719 7.519531 5.507812 C 8.195312 5.753906 11.707031 7.152344 12.371094 7.394531 C 13.035156 7.640625 13.0625 7.839844 12.378906 8.195312 Z M 12.378906 8.195312 "/>
<path style=" stroke:none;fill-rule:nonzero;fill:rgb(64.313725%,12.941176%,13.333333%);fill-opacity:1;" d="M 12.378906 7.378906 C 11.695312 7.734375 8.164062 9.1875 7.410156 9.582031 C 6.660156 9.972656 6.242188 9.96875 5.644531 9.683594 C 5.050781 9.402344 1.292969 7.882812 0.613281 7.558594 C 0.277344 7.398438 0.0976562 7.261719 0.0976562 7.132812 L 0.0976562 5.839844 C 0.0976562 5.839844 4.992188 4.773438 5.785156 4.488281 C 6.574219 4.207031 6.847656 4.195312 7.519531 4.441406 C 8.195312 4.6875 12.214844 5.414062 12.878906 5.65625 C 12.878906 5.65625 12.878906 6.8125 12.878906 6.933594 C 12.878906 7.058594 12.726562 7.199219 12.378906 7.378906 Z M 12.378906 7.378906 "/>
<path style=" stroke:none;fill-rule:nonzero;fill:rgb(84.705882%,18.431373%,15.294118%);fill-opacity:1;" d="M 12.378906 6.089844 C 11.695312 6.445312 8.164062 7.898438 7.410156 8.289062 C 6.660156 8.679688 6.242188 8.675781 5.644531 8.394531 C 5.050781 8.109375 1.292969 6.589844 0.613281 6.265625 C -0.0625 5.941406 -0.078125 5.71875 0.589844 5.460938 C 1.253906 5.199219 4.992188 3.730469 5.785156 3.449219 C 6.574219 3.164062 6.847656 3.152344 7.519531 3.398438 C 8.195312 3.648438 11.707031 5.042969 12.371094 5.289062 C 13.035156 5.53125 13.0625 5.734375 12.378906 6.089844 Z M 12.378906 6.089844 "/>
<path style=" stroke:none;fill-rule:nonzero;fill:rgb(64.313725%,12.941176%,13.333333%);fill-opacity:1;" d="M 12.378906 5.195312 C 11.695312 5.550781 8.164062 7.003906 7.410156 7.394531 C 6.660156 7.789062 6.242188 7.785156 5.644531 7.5 C 5.050781 7.214844 1.292969 5.699219 0.613281 5.375 C 0.277344 5.210938 0.0976562 5.074219 0.0976562 4.945312 L 0.0976562 3.652344 C 0.0976562 3.652344 4.992188 2.589844 5.785156 2.304688 C 6.574219 2.019531 6.847656 2.011719 7.519531 2.257812 C 8.195312 2.503906 12.214844 3.230469 12.878906 3.472656 C 12.878906 3.472656 12.878906 4.625 12.878906 4.746094 C 12.878906 4.875 12.726562 5.015625 12.378906 5.195312 Z M 12.378906 5.195312 "/>
<path style=" stroke:none;fill-rule:nonzero;fill:rgb(84.705882%,18.431373%,15.294118%);fill-opacity:1;" d="M 12.378906 3.902344 C 11.695312 4.257812 8.164062 5.710938 7.410156 6.105469 C 6.660156 6.496094 6.242188 6.492188 5.644531 6.207031 C 5.050781 5.925781 1.292969 4.40625 0.613281 4.082031 C -0.0625 3.757812 -0.078125 3.535156 0.589844 3.273438 C 1.253906 3.011719 4.992188 1.546875 5.785156 1.261719 C 6.574219 0.980469 6.847656 0.96875 7.519531 1.214844 C 8.195312 1.460938 11.707031 2.859375 12.371094 3.101562 C 13.035156 3.347656 13.0625 3.546875 12.378906 3.902344 Z M 12.378906 3.902344 "/>
<path style=" stroke:none;fill-rule:nonzero;fill:rgb(100%,100%,100%);fill-opacity:1;" d="M 8.164062 2.660156 L 7.054688 2.773438 L 6.808594 3.371094 L 6.40625 2.703125 L 5.128906 2.589844 L 6.082031 2.246094 L 5.796875 1.71875 L 6.691406 2.066406 L 7.53125 1.789062 L 7.304688 2.335938 Z M 8.164062 2.660156 "/>
<path style=" stroke:none;fill-rule:nonzero;fill:rgb(100%,100%,100%);fill-opacity:1;" d="M 6.742188 5.554688 L 4.675781 4.695312 L 7.636719 4.242188 Z M 6.742188 5.554688 "/>
<path style=" stroke:none;fill-rule:nonzero;fill:rgb(100%,100%,100%);fill-opacity:1;" d="M 5.460938 3.605469 C 5.460938 3.265625 4.75 2.992188 3.875 2.992188 C 3 2.992188 2.292969 3.265625 2.292969 3.605469 C 2.292969 3.941406 3 4.21875 3.875 4.21875 C 4.75 4.21875 5.460938 3.941406 5.460938 3.605469 Z M 5.460938 3.605469 "/>
<path style=" stroke:none;fill-rule:nonzero;fill:rgb(47.45098%,8.235294%,7.843137%);fill-opacity:1;" d="M 9.472656 2.820312 L 11.226562 3.515625 L 9.472656 4.207031 Z M 9.472656 2.820312 "/>
<path style=" stroke:none;fill-rule:nonzero;fill:rgb(67.843137%,14.509804%,14.117647%);fill-opacity:1;" d="M 7.535156 3.589844 L 9.472656 2.820312 L 9.472656 4.207031 L 9.285156 4.28125 Z M 7.535156 3.589844 "/>
</g>
</svg>
